<?xml version="1.0" encoding="UTF-8"?>
<svg id="Layer_2" data-name="Layer 2" xmlns="http://www.w3.org/2000/svg" viewBox="0 0 170.86 127.5">
  <defs>
    <style>
      .cls-1 {
        fill: #26647e;
        stroke-width: 0px;
      }
    </style>
  </defs>
  <g id="Layer_1-2" data-name="Layer 1">
    <g>
      <path class="cls-1" d="M131.6,23.82l.27.09.98,1.43,1.07,1.61,1.25,2.05.89,1.61,1.07,2.05,1.16,2.5,1.07,2.68,1.07,3.21.62,2.23.62,2.59.54,2.94.36,2.68.18,1.87.09,1.52v5.62l-.18,2.59-.36,2.86-.45,2.68-.71,3.21-.62,2.23-1.07,3.3-.98,2.5-1.34,2.94-1.43,2.77-.89,1.52-.8,1.34-.89,1.34-1.07,1.52-1.07,1.43-1.16,1.43-.8.98-1.07,1.16-.09.18h-.18l-.18.36-2.68,2.68-.71.62-1.07.98-.98.8-1.34,1.07-1.7,1.25-.89.71-.71.71-.62.71-.36.45h-.18l-.18.36-.62.62-.62.71-2.59,2.77-.09.18h-.18l-.18.36-.62.62-.62.71-.54.62h-.18l-.18.36-.89.89-.62.71-.27.36h-.18l-.18.36-.62.62-.62.71-1.34,1.43-1.07,1.16-.27.36h-.18l-.18.36-.71.71-.62.71-1.25,1.34-1.34,1.43-.18.27h-.18l-.18.36-.71.71-.62.8-.27.09-.09-.27-.09-10.71-.36-.98-.54-.62-1.07-.54h-1.61l-3.84.36-1.78.09h-4.37l-2.94-.18-3.66-.45-2.94-.54-3.93-.98-3.12-.98-1.87-.71-2.59-1.07-2.94-1.43-2.14-1.16-2.05-1.25-1.87-1.25-1.52-1.07.18-.36L131.6,23.82ZM84.76,80.65l-1.07.27-.98.54-.8.62-.62.62-.54.8-.45,1.16-.18.8v1.61l.36,1.34.62,1.16.98,1.07,1.16.71.89.36.8.18h1.52l1.16-.27,1.25-.62.98-.8.8-1.07.45-.98.27-1.07v-1.61l-.36-1.34-.62-1.16-.8-.89-.89-.71-.98-.45-.98-.27h-1.96ZM102.78,80.57l-1.34.18-.98.36-.89.54-.89.8-.62.8-.54,1.07-.27,1.16v1.61l.36,1.34.62,1.16.98,1.07,1.16.71.89.36.8.18h1.52l1.16-.27,1.25-.62.98-.8.8-1.07.45-.89.27-1.16v-1.61l-.36-1.34-.62-1.16-.8-.89-.89-.71-.98-.45-.98-.27-1.07-.09ZM119.82,80.57l-1.34.18-1.07.45-.98.62-.89.89-.54.8-.45,1.07-.18.89v1.61l.36,1.34.62,1.16.98,1.07,1.16.71.89.36.8.18h1.52l1.34-.36,1.07-.54.98-.8.71-.89.54-1.07.27-1.16v-1.61l-.36-1.34-.62-1.16-.8-.89-.89-.71-.98-.45-.98-.27-1.16-.09Z"/>
      <path class="cls-1" d="M147.84,3.39h8.74l.98.18.71.36.71.71.36.71.18.62v.62l-.27.98-.62.8-.71.54-.89.27-2.41.09,1.25,1.7,1.07,1.52,1.7,2.59.8,1.34.89,1.52.71,1.25,1.34,2.5,1.25,2.59,1.43,3.3.98,2.5,1.07,3.21.71,2.32.89,3.39.62,2.86.62,3.39.45,3.39.27,2.77.18,2.86v7.05l-.27,3.93-.45,3.75-.62,3.84-.8,3.66-.8,3.12-.98,3.12-.71,2.14-.98,2.59-1.25,2.94-.8,1.78-.71,1.43-1.25,2.41-1.07,1.87-1.16,1.96-.89,1.34-.8,1.25-.8,1.16-1.16,1.61-.8,1.07-.98,1.25-.8.98-.98,1.16-1.07,1.25-.98,1.07-1.25,1.34-.98.98-.89.45-.36.09h-1.07l-.98-.36-.8-.71-.54-1.07-.09-.8.18-.89.36-.71.98-1.07.62-.62.62-.71.98-1.07.62-.71,1.07-1.25,1.96-2.5.89-1.25,1.16-1.61.8-1.25,1.25-1.96,1.34-2.32,1.34-2.5,1.07-2.14,1.34-3.03,1.25-3.21,1.07-3.21.89-3.12.89-3.75.71-3.93.45-3.48.27-3.21.09-1.7v-5.98l-.27-4.01-.45-3.75-.62-3.66-.71-3.21-.8-3.03-1.07-3.39-.98-2.68-.98-2.41-1.34-2.94-1.52-3.03-1.25-2.14-.8-1.43-1.34-2.05-1.07-1.61-.71-.98h-.09v.8l-.27.98-.62.8-.71.54-.8.27h-1.16l-.89-.36-.8-.71-.54-1.07-.09-.54V6.16l.27-1.07.62-.8.62-.54.62-.27.62-.09Z"/>
      <path class="cls-1" d="M25.43,0h.62l.8.18.8.54.62.71.36.8v1.43l-.54,1.07-1.25,1.34-1.16,1.16-.09.18h-.18l-.18.36-1.07,1.16-.8.98-1.07,1.25-1.78,2.32-1.16,1.61-1.78,2.68-.71,1.16-1.07,1.78-1.43,2.59-1.34,2.68-.98,2.14-.98,2.41-1.25,3.39-1.07,3.48-.8,3.03-.71,3.39-.36,1.96-.36,2.41-.27,2.14-.27,3.75-.09,2.5v2.41l.18,3.84.27,3.12.45,3.3.54,3.03.8,3.57.89,3.21,1.25,3.84,1.34,3.39,1.43,3.21,1.61,3.21,1.16,2.05,1.16,1.96.8,1.25.98,1.43.54.8v.18h.18l.27-1.87.36-.89.54-.71.71-.45.62-.18h1.25l.89.36.8.71.45.8.09.36v1.52l-.89,7.14-.27,1.43-.45.89-.62.62-.8.36-.36.09h-1.07l-4.37-.62-5.26-.8-.98-.36-.8-.71-.54-1.07-.09-.71.18-.98.45-.89.71-.62.8-.36h1.78l1.61.18-1.43-2.14-1.07-1.7-1.34-2.23-.89-1.61-1.07-1.96-.98-2.05-.8-1.7-1.16-2.77-1.16-3.12-1.07-3.21-1.07-3.84-.8-3.57-.62-3.48-.45-3.21-.36-3.93-.09-1.52-.09-2.77v-2.41l.09-2.68.36-4.55.54-3.93.45-2.59.71-3.39.71-2.77,1.07-3.57.89-2.59.71-1.87.8-1.96,1.16-2.59,1.07-2.23,1.16-2.23,1.16-2.05,1.52-2.5,2.23-3.3.98-1.34,1.07-1.43,1.16-1.43.71-.89.98-1.16.8-.89.62-.71,1.34-1.43.62-.71h.18l.18-.36.8-.71.89-.45.45-.09Z"/>
      <path class="cls-1" d="M36.85,28.1l.89.18,3.12.8,2.5.62,4.73,1.07,4.91.98,3.48.62.36.18-1.34,5.35-.71,3.39-.45,2.77-.36,2.5-.36,3.3-.27,4.1-.09.8-.09.09h-24.54l.09-1.87.36-3.12.54-3.21.71-3.21.89-3.12,1.16-3.3,1.34-3.12,1.07-2.23,1.07-1.96.89-1.52.09-.09Z"/>
      <path class="cls-1" d="M28.73,60.49h24.45l.18.36.27,4.55.45,4.1.62,3.93.45,2.5-.09.54-.71.62-13.92,13.92-.54.62h-.18l-1.07-1.52-.89-1.34-1.07-1.7-1.16-2.05-1.07-2.05-.98-2.05-1.16-2.86-.89-2.5-.71-2.32-.8-3.21-.54-2.77-.45-3.12-.27-2.94v-.62l.09-.09Z"/>
      <path class="cls-1" d="M62.45,33.37h.8l5.98.62,4.55.36,5.09.27,4.01.18.09.18v3.21l-.09,10.35-6.33,6.33h-17.58l-.09-.09.09-2.41.36-4.1.45-3.39.71-3.93.8-3.57.8-3.03.27-.89.09-.09Z"/>
      <path class="cls-1" d="M72.09,2.14l.36.09-.71.98-1.16,1.52-1.87,2.68-.89,1.34-1.34,2.14-.8,1.34-1.34,2.32-1.16,2.23-.71,1.43-1.25,2.59-1.25,2.94-1.07,2.77-.27.54-.98-.09-4.19-.71-5.26-1.07-4.91-1.16-2.77-.71-.18-.09.18-.45.98-1.25,2.14-2.5.62-.62.27-.36h.18l.18-.36,1.07-1.07h.18l.18-.36h.18v-.18l.71-.62,1.07-.98.98-.8,1.52-1.25.98-.71,1.61-1.16,2.05-1.34,2.41-1.43,2.41-1.25,2.41-1.16,3.03-1.25,2.68-.89,2.41-.71,1.34-.36Z"/>
      <path class="cls-1" d="M82.44.62l.45.09.09,10.17v18.11l-.09.18h-1.87l-4.64-.18-6.16-.45-5.26-.54-.62-.18.27-.8,1.07-2.59.8-1.78,1.25-2.68,1.07-1.96.62-1.25,1.16-1.96.89-1.52.89-1.34,1.16-1.78.98-1.34,1.07-1.52,1.07-1.43h.18l.18-.36.89-1.16.18-.27h.18l.18-.36.8-.89.8-.98.54-.62h.18l.18-.36.27-.18,1.25-.09Z"/>
      <path class="cls-1" d="M88.6.62l1.61.09.54.36.8.89.8.98.89.98.98,1.25,1.16,1.43.98,1.34,1.16,1.61,1.43,2.14,1.16,1.78.8,1.34,1.07,1.87,1.16,2.14,1.7,3.39,1.25,2.86v.36l-.71.62-2.23,2.23-1.07.18-4.46.36-4.73.27-2.32.09h-1.96l-.09-.09V.89l.09-.27Z"/>
      <path class="cls-1" d="M99.03,2.14l.62.09,3.21.89,2.86.98,2.86,1.16,2.32,1.07,2.59,1.34,1.52.89,1.7,1.07,1.34.89,1.34.98.27.36-1.16,1.07-8.03,8.03-.54-.89-1.07-2.23-.98-1.96-1.07-1.96-1.34-2.32-1.34-2.14-1.96-2.94-1.07-1.52-.8-1.07-.89-1.16-.36-.45v-.18Z"/>
      <path class="cls-1" d="M58.97,60.49h11.6l.18.09-.18.36-.71.62-9.37,9.37-.27.36h-.27l-.27-1.43-.45-3.57-.27-3.3-.09-2.32.09-.18Z"/>
      <path class="cls-1" d="M95.29,34.53h1.52l-.18.36-.71.62-6.69,6.69-.09.18h-.18l-.18.36h-.18l-.09-.36v-7.49l.09-.09,6.69-.27Z"/>
    </g>
  </g>
</svg>