<?xml version="1.0" encoding="utf-8"?>
<!-- Generator: Adobe Illustrator 28.2.0, SVG Export Plug-In . SVG Version: 6.00 Build 0)  -->
<svg version="1.1" id="Layer_2_00000181788834335391233400000006554273132858742953_"
	 xmlns="http://www.w3.org/2000/svg" xmlns:xlink="http://www.w3.org/1999/xlink" x="0px" y="0px" viewBox="0 0 607.2 127.5"
	 style="enable-background:new 0 0 607.2 127.5;" xml:space="preserve">
<style type="text/css">
	.st0{fill:#25647D;}
	.st1{font-family:'BerlinSansFB-Bold';}
	.st2{font-size:93.06px;}
	.st3{letter-spacing:2;}
	.st4{fill:#26647E;}
</style>
<text transform="matrix(1 0 0 1 10.8833 93.43)" class="st0 st1 st2 st3">MEMING</text>
<g>
	<path class="st4" d="M568,23.8l0.3,0.1l1,1.4l1.1,1.6l1.2,2l0.9,1.6l1.1,2l1.2,2.5l1.1,2.7l1.1,3.2l0.6,2.2l0.6,2.6l0.5,2.9
		l0.4,2.7l0.2,1.9l0.1,1.5v5.6l-0.2,2.6l-0.4,2.9l-0.5,2.7l-0.7,3.2l-0.6,2.2l-1.1,3.3l-1,2.5l-1.3,2.9l-1.4,2.8l-0.9,1.5l-0.8,1.3
		l-0.9,1.3l-1.1,1.5l-1.1,1.4l-1.2,1.4l-0.8,1l-1.1,1.2l-0.1,0.2H564l-0.2,0.4l-2.7,2.7l-0.7,0.6l-1.1,1l-1,0.8l-1.3,1.1l-1.7,1.2
		l-0.9,0.7l-0.7,0.7l-0.6,0.7l-0.4,0.4h-0.2l-0.2,0.4l-0.6,0.6l-0.6,0.7l-2.6,2.8l-0.1,0.2h-0.2l-0.2,0.4l-0.6,0.6l-0.6,0.7
		l-0.5,0.6h-0.2l-0.2,0.4l-0.9,0.9l-0.6,0.7l-0.3,0.4H544l-0.2,0.4l-0.6,0.6l-0.6,0.7l-1.3,1.4l-1.1,1.2l-0.3,0.4h-0.2l-0.2,0.4
		l-0.7,0.7l-0.6,0.7l-1.2,1.3l-1.3,1.4l-0.2,0.3h-0.2l-0.2,0.4l-0.7,0.7l-0.6,0.8l-0.3,0.1l-0.1-0.3l-0.1-10.7l-0.4-1l-0.5-0.6
		l-1.1-0.5h-1.6l-3.8,0.4l-1.8,0.1h-4.4l-2.9-0.2l-3.7-0.4l-2.9-0.5l-3.9-1l-3.1-1l-1.9-0.7l-2.6-1.1l-2.9-1.4l-2.1-1.2l-2-1.2
		l-1.9-1.2l-1.5-1.1l0.2-0.4L568,23.8L568,23.8z M521.1,80.7l-1.1,0.3l-1,0.5l-0.8,0.6l-0.6,0.6l-0.5,0.8l-0.5,1.2l-0.2,0.8v1.6
		l0.4,1.3l0.6,1.2l1,1.1l1.2,0.7l0.9,0.4l0.8,0.2h1.5l1.2-0.3l1.2-0.6l1-0.8l0.8-1.1l0.4-1l0.3-1.1v-1.6l-0.4-1.3l-0.6-1.2l-0.8-0.9
		l-0.9-0.7l-1-0.4l-1-0.3L521.1,80.7L521.1,80.7z M539.1,80.6l-1.3,0.2l-1,0.4l-0.9,0.5l-0.9,0.8l-0.6,0.8l-0.5,1.1l-0.3,1.2v1.6
		l0.4,1.3l0.6,1.2l1,1.1l1.2,0.7l0.9,0.4l0.8,0.2h1.5l1.2-0.3l1.2-0.6l1-0.8l0.8-1.1l0.4-0.9l0.3-1.2v-1.6l-0.4-1.3l-0.6-1.2
		l-0.8-0.9l-0.9-0.7l-1-0.4l-1-0.3L539.1,80.6L539.1,80.6z M556.2,80.6l-1.3,0.2l-1.1,0.4l-1,0.6l-0.9,0.9l-0.5,0.8l-0.5,1.1
		l-0.2,0.9v1.6l0.4,1.3l0.6,1.2l1,1.1l1.2,0.7l0.9,0.4l0.8,0.2h1.5l1.3-0.4l1.1-0.5l1-0.8l0.7-0.9l0.5-1.1l0.3-1.2v-1.6l-0.4-1.3
		L561,83l-0.8-0.9l-0.9-0.7l-1-0.4l-1-0.3L556.2,80.6L556.2,80.6z"/>
	<path class="st4" d="M584.2,3.4h8.7l1,0.2l0.7,0.4l0.7,0.7l0.4,0.7l0.2,0.6v0.6l-0.3,1L595,8.4l-0.7,0.5l-0.9,0.3L591,9.3l1.2,1.7
		l1.1,1.5l1.7,2.6l0.8,1.3l0.9,1.5l0.7,1.2l1.3,2.5l1.2,2.6l1.4,3.3l1,2.5l1.1,3.2l0.7,2.3l0.9,3.4l0.6,2.9l0.6,3.4l0.5,3.4l0.3,2.8
		l0.2,2.9v7l-0.3,3.9l-0.5,3.8l-0.6,3.8l-0.8,3.7l-0.8,3.1l-1,3.1l-0.7,2.1l-1,2.6l-1.2,2.9l-0.8,1.8l-0.7,1.4l-1.2,2.4l-1.1,1.9
		l-1.2,2l-0.9,1.3l-0.8,1.2l-0.8,1.2l-1.2,1.6l-0.8,1.1l-1,1.2l-0.8,1l-1,1.2l-1.1,1.2l-1,1.1l-1.2,1.3l-1,1l-0.9,0.4l-0.4,0.1h-1.1
		l-1-0.4l-0.8-0.7l-0.5-1.1l-0.1-0.8l0.2-0.9l0.4-0.7l1-1.1l0.6-0.6l0.6-0.7l1-1.1l0.6-0.7l1.1-1.2l2-2.5l0.9-1.2l1.2-1.6l0.8-1.2
		l1.2-2L592,94l1.3-2.5l1.1-2.1l1.3-3l1.2-3.2l1.1-3.2l0.9-3.1l0.9-3.8l0.7-3.9l0.5-3.5l0.3-3.2l0.1-1.7v-6l-0.3-4l-0.5-3.8
		l-0.6-3.7l-0.7-3.2l-0.8-3l-1.1-3.4l-1-2.7l-1-2.4l-1.3-2.9l-1.5-3l-1.2-2.1l-0.8-1.4l-1.3-2l-1.1-1.6l-0.7-1h-0.1v0.8l-0.3,1
		l-0.6,0.8l-0.7,0.5l-0.8,0.3h-1.2l-0.9-0.4l-0.8-0.7l-0.5-1.1l-0.1-0.5v-9l0.3-1.1l0.6-0.8l0.6-0.5l0.6-0.3L584.2,3.4L584.2,3.4z"
		/>
	<path class="st4" d="M461.8,0h0.6l0.8,0.2l0.8,0.5l0.6,0.7l0.4,0.8v1.4l-0.5,1.1l-1.2,1.3L462,7.2l-0.1,0.2h-0.2l-0.2,0.4l-1.1,1.2
		l-0.8,1l-1.1,1.2l-1.8,2.3l-1.2,1.6l-1.8,2.7l-0.7,1.2l-1.1,1.8l-1.4,2.6l-1.3,2.7l-1,2.1l-1,2.4l-1.2,3.4l-1.1,3.5l-0.8,3
		l-0.7,3.4l-0.4,2l-0.4,2.4l-0.3,2.1l-0.3,3.8l-0.1,2.5V59l0.2,3.8l0.3,3.1l0.5,3.3l0.5,3l0.8,3.6l0.9,3.2l1.2,3.8l1.3,3.4l1.4,3.2
		l1.6,3.2l1.2,2.1l1.2,2l0.8,1.2l1,1.4l0.5,0.8v0.2h0.2l0.3-1.9l0.4-0.9l0.5-0.7l0.7-0.4l0.6-0.2h1.2l0.9,0.4l0.8,0.7l0.5,0.8
		l0.1,0.4v1.5l-0.9,7.1l-0.3,1.4l-0.5,0.9l-0.6,0.6l-0.8,0.4l-0.4,0.1h-1.1l-4.4-0.6l-5.3-0.8l-1-0.4l-0.8-0.7l-0.5-1.1l-0.1-0.7
		l0.2-1l0.5-0.9l0.7-0.6l0.8-0.4h1.8l1.6,0.2l-1.4-2.1l-1.1-1.7l-1.3-2.2l-0.9-1.6l-1.1-2l-1-2.1l-0.8-1.7l-1.2-2.8l-1.2-3.1
		l-1.1-3.2l-1.1-3.8l-0.8-3.6l-0.6-3.5l-0.5-3.2l-0.4-3.9l-0.1-1.5l-0.1-2.8v-2.4l0.1-2.7l0.4-4.5l0.5-3.9l0.5-2.6l0.7-3.4l0.7-2.8
		l1.1-3.6l0.9-2.6l0.7-1.9l0.8-2l1.2-2.6l1.1-2.2l1.2-2.2l1.2-2l1.5-2.5l2.2-3.3l1-1.3l1.1-1.4l1.2-1.4l0.7-0.9l1-1.2l0.8-0.9
		l0.6-0.7l1.3-1.4l0.6-0.7h0.2l0.2-0.4l0.8-0.7l0.9-0.4L461.8,0L461.8,0z"/>
	<path class="st4" d="M473.2,28.1l0.9,0.2l3.1,0.8l2.5,0.6l4.7,1.1l4.9,1l3.5,0.6l0.4,0.2l-1.3,5.3l-0.7,3.4l-0.5,2.8l-0.4,2.5
		l-0.4,3.3l-0.3,4.1l-0.1,0.8l-0.1,0.1H465l0.1-1.9l0.4-3.1l0.5-3.2l0.7-3.2l0.9-3.1l1.2-3.3l1.3-3.1l1.1-2.2l1.1-2L473.2,28.1
		L473.2,28.1L473.2,28.1z"/>
	<path class="st4" d="M465.1,60.5h24.5l0.2,0.4l0.3,4.5l0.5,4.1l0.6,3.9l0.5,2.5l-0.1,0.5l-0.7,0.6L476.8,91l-0.5,0.6h-0.2l-1.1-1.5
		l-0.9-1.3l-1.1-1.7l-1.2-2.1l-1.1-2.1l-1-2.1l-1.2-2.9l-0.9-2.5l-0.7-2.3l-0.8-3.2l-0.5-2.8l-0.5-3.1l-0.3-2.9L465.1,60.5
		L465.1,60.5L465.1,60.5z"/>
	<path class="st4" d="M498.8,33.4h0.8l6,0.6l4.5,0.4l5.1,0.3l4,0.2l0.1,0.2v3.2l-0.1,10.4l-6.3,6.3h-17.6l-0.1-0.1l0.1-2.4l0.4-4.1
		l0.5-3.4l0.7-3.9l0.8-3.6l0.8-3L498.8,33.4L498.8,33.4L498.8,33.4z"/>
	<path class="st4" d="M508.4,2.1l0.4,0.1l-0.7,1l-1.2,1.5l-1.9,2.7l-0.9,1.3l-1.3,2.1l-0.8,1.3l-1.3,2.3l-1.2,2.2l-0.7,1.4l-1.2,2.6
		l-1.2,2.9l-1.1,2.8l-0.3,0.5l-1-0.1l-4.2-0.7l-5.3-1.1l-4.9-1.2l-2.8-0.7l-0.2-0.1l0.2-0.5l1-1.2L480,19l0.6-0.6l0.3-0.4h0.2
		l0.2-0.4l1.1-1.1h0.2l0.2-0.4h0.2v-0.2l0.7-0.6l1.1-1l1-0.8l1.5-1.2l1-0.7l1.6-1.2l2-1.3l2.4-1.4l2.4-1.2l2.4-1.2l3-1.2l2.7-0.9
		l2.4-0.7L508.4,2.1L508.4,2.1z"/>
	<path class="st4" d="M518.8,0.6l0.4,0.1l0.1,10.2V29l-0.1,0.2h-1.9l-4.6-0.2l-6.2-0.5l-5.3-0.5l-0.6-0.2L501,27l1.1-2.6l0.8-1.8
		l1.2-2.7l1.1-2l0.6-1.2l1.2-2l0.9-1.5l0.9-1.3l1.2-1.8l1-1.3l1.1-1.5l1.1-1.4h0.2l0.2-0.4l0.9-1.2l0.2-0.3h0.2l0.2-0.4l0.8-0.9
		l0.8-1l0.5-0.6h0.2l0.2-0.4l0.3-0.2L518.8,0.6L518.8,0.6z"/>
	<path class="st4" d="M524.9,0.6l1.6,0.1l0.5,0.4l0.8,0.9l0.8,1l0.9,1l1,1.2l1.2,1.4l1,1.3l1.2,1.6l1.4,2.1l1.2,1.8l0.8,1.3l1.1,1.9
		l1.2,2.1l1.7,3.4l1.2,2.9v0.4l-0.7,0.6l-2.2,2.2l-1.1,0.2l-4.5,0.4l-4.7,0.3l-2.3,0.1h-2l-0.1-0.1V0.9L524.9,0.6L524.9,0.6z"/>
	<path class="st4" d="M535.4,2.1l0.6,0.1l3.2,0.9l2.9,1l2.9,1.2l2.3,1.1l2.6,1.3l1.5,0.9l1.7,1.1l1.3,0.9l1.3,1l0.3,0.4l-1.2,1.1
		l-8,8l-0.5-0.9l-1.1-2.2l-1-2l-1.1-2l-1.3-2.3l-1.3-2.1l-2-2.9L537.5,5l-0.8-1.1l-0.9-1.2l-0.4-0.5L535.4,2.1L535.4,2.1z"/>
	<path class="st4" d="M495.3,60.5h11.6l0.2,0.1l-0.2,0.4l-0.7,0.6l-9.4,9.4l-0.3,0.4h-0.3l-0.3-1.4l-0.5-3.6l-0.3-3.3l-0.1-2.3
		L495.3,60.5L495.3,60.5z"/>
	<path class="st4" d="M531.6,34.5h1.5l-0.2,0.4l-0.7,0.6l-6.7,6.7l-0.1,0.2h-0.2l-0.2,0.4H525l-0.1-0.4v-7.5l0.1-0.1L531.6,34.5
		L531.6,34.5z"/>
</g>
</svg>
